<svg width="26" height="26" viewBox="0 0 26 26" fill="none" xmlns="http://www.w3.org/2000/svg">
<path d="M21.8703 12.9906L21.2656 20.3641C21.1109 22.2719 18.2703 22.0094 18.425 20.1344L18.8937 14.3922L16.9672 14.5C17.4406 15.4703 17.7078 16.5578 17.7078 17.7109C17.7078 19.6422 16.9531 21.4 15.725 22.7031L13.8828 20.8609C16.5969 17.875 14.4969 13.0234 10.4141 13.0234C9.2 13.0234 8.09375 13.4875 7.26406 14.2422L5.42188 12.4C6.45312 11.4297 7.77031 10.7547 9.2375 10.5156L12.7672 6.49844L10.7703 5.33594L8.35156 7.49219C6.94531 8.74844 5.04219 6.625 6.45312 5.36406L9.64062 2.51875C10.1 2.10625 10.7703 2.04062 11.3047 2.35C11.3047 2.35 17.8344 6.14219 17.8438 6.15156C18.6031 6.625 18.8141 7.83906 18.1297 8.61719L15.3922 11.7344L20.3656 11.4578C21.2328 11.4063 21.9406 12.1328 21.8703 12.9906ZM18.8281 5.77188C20.1453 5.77188 21.2141 4.70313 21.2141 3.38594C21.2141 2.06875 20.1453 1 18.8281 1C17.5109 1 16.4422 2.06875 16.4422 3.38594C16.4422 4.70313 17.5109 5.77188 18.8281 5.77188V5.77188ZM10.4188 22.3984C6.64063 22.3984 4.44688 18.1516 6.54219 15.0812L4.68125 13.2203C3.70625 14.4531 3.125 16.0141 3.125 17.7062C3.125 23.8328 10.1891 27.1469 14.9094 23.4484L13.0484 21.5875C12.2984 22.0984 11.3938 22.3984 10.4188 22.3984Z" fill="#333333"/>
</svg>
