<svg width="27" height="27" viewBox="0 0 27 27" fill="none" xmlns="http://www.w3.org/2000/svg">
<g clip-path="url(#clip0_134_53)">
<g clip-path="url(#clip1_134_53)">
<path d="M21.5 1C22.8802 1 24 2.11927 24 3.5V25.1667C24 26.5469 22.8802 27.6667 21.5 27.6667H16.5V23.5C16.5 22.1198 15.3802 21 14 21C12.6198 21 11.5 22.1198 11.5 23.5V27.6667H6.5C5.11927 27.6667 4 26.5469 4 25.1667V3.5C4 2.11927 5.11927 1 6.5 1H21.5ZM7.33333 15.1667C7.33333 15.625 7.70625 16 8.16667 16H9.83333C10.2917 16 10.6667 15.625 10.6667 15.1667V13.5C10.6667 13.0417 10.2917 12.6667 9.83333 12.6667H8.16667C7.70625 12.6667 7.33333 13.0417 7.33333 13.5V15.1667ZM13.1667 12.6667C12.7083 12.6667 12.3333 13.0417 12.3333 13.5V15.1667C12.3333 15.625 12.7083 16 13.1667 16H14.8333C15.2917 16 15.6667 15.625 15.6667 15.1667V13.5C15.6667 13.0417 15.2917 12.6667 14.8333 12.6667H13.1667ZM17.3333 15.1667C17.3333 15.625 17.7083 16 18.1667 16H19.8333C20.2917 16 20.6667 15.625 20.6667 15.1667V13.5C20.6667 13.0417 20.2917 12.6667 19.8333 12.6667H18.1667C17.7083 12.6667 17.3333 13.0417 17.3333 13.5V15.1667ZM8.16667 6C7.70625 6 7.33333 6.375 7.33333 6.83333V8.5C7.33333 8.95833 7.70625 9.33333 8.16667 9.33333H9.83333C10.2917 9.33333 10.6667 8.95833 10.6667 8.5V6.83333C10.6667 6.375 10.2917 6 9.83333 6H8.16667ZM12.3333 8.5C12.3333 8.95833 12.7083 9.33333 13.1667 9.33333H14.8333C15.2917 9.33333 15.6667 8.95833 15.6667 8.5V6.83333C15.6667 6.375 15.2917 6 14.8333 6H13.1667C12.7083 6 12.3333 6.375 12.3333 6.83333V8.5ZM18.1667 6C17.7083 6 17.3333 6.375 17.3333 6.83333V8.5C17.3333 8.95833 17.7083 9.33333 18.1667 9.33333H19.8333C20.2917 9.33333 20.6667 8.95833 20.6667 8.5V6.83333C20.6667 6.375 20.2917 6 19.8333 6H18.1667Z" fill="white"/>
</g>
</g>
<defs>
<clipPath id="clip0_134_53">
<rect width="27" height="27" fill="white"/>
</clipPath>
<clipPath id="clip1_134_53">
<rect width="20" height="26.6667" fill="white" transform="translate(4 1)"/>
</clipPath>
</defs>
</svg>
