<svg width="20" height="19" viewBox="0 0 20 19" fill="none" xmlns="http://www.w3.org/2000/svg">
<g clip-path="url(#clip0_81_50)">
<path d="M10.5555 1.18681C10.5555 0.873441 10.7673 0.611115 11.1111 0.611115C15.4062 0.611115 18.8889 4.09375 18.8889 8.38889C18.8889 8.70139 18.625 8.94445 18.3125 8.94445H10.5555V1.18681ZM1.11108 10.0556C1.11108 5.84375 4.23956 2.35903 8.26733 1.80035C8.61803 1.7566 8.88886 2.0125 8.88886 2.33368V10.6111L14.3229 16.0451C14.5555 16.2778 14.5382 16.6597 14.2708 16.8507C12.9097 17.8194 11.243 18.3889 9.44442 18.3889C4.84372 18.3889 1.11108 14.6597 1.11108 10.0556ZM19.3889 10.6111C19.7083 10.6111 19.9653 10.8819 19.9236 11.2014C19.6562 13.1424 18.7187 14.8681 17.3576 16.1424C17.1493 16.309 16.8229 16.3229 16.6215 16.1215L11.1111 10.6111H19.3889Z" fill="white"/>
</g>
<defs>
<clipPath id="clip0_81_50">
<rect width="20" height="17.7778" fill="white" transform="translate(0 0.611115)"/>
</clipPath>
</defs>
</svg>
