<svg width="20" height="21" viewBox="0 0 20 21" fill="none" xmlns="http://www.w3.org/2000/svg">
<path d="M17.1429 0.0952148H2.85714C1.27902 0.0952148 0 1.37423 0 2.95236V17.2381C0 18.8162 1.27902 20.0952 2.85714 20.0952H17.1429C18.721 20.0952 20 18.8162 20 17.2381V2.95236C20 1.37423 18.7188 0.0952148 17.1429 0.0952148ZM15 14.7381C15 15.3296 14.5201 15.8095 13.9286 15.8095C13.3371 15.8095 12.8571 15.3318 12.8571 14.7381V11.1666H7.14286V14.7381C7.14286 15.3318 6.66518 15.8095 6.07143 15.8095C5.47768 15.8095 5 15.3318 5 14.7381V5.45236C5 4.86307 5.48214 4.38093 6.07143 4.38093C6.66071 4.38093 7.14286 4.86307 7.14286 5.45236V9.02379H12.8571V5.45236C12.8571 4.86307 13.3393 4.38093 13.9286 4.38093C14.5179 4.38093 15 4.86084 15 5.45236V14.7381Z" fill="white"/>
</svg>
