<svg width="24" height="24" viewBox="0 0 24 24" fill="none" xmlns="http://www.w3.org/2000/svg">
<path fill-rule="evenodd" clip-rule="evenodd" d="M10.8767 0.02857C8.20769 0.325993 5.87292 1.36055 3.99282 3.07889C1.81163 5.07243 0.465208 7.60193 0.0832954 10.4238C-0.0224447 11.2053 -0.0253532 12.7809 0.0775721 13.5167C0.269584 14.8889 0.689776 16.2521 1.28683 17.4396C1.61066 18.0837 1.68591 18.6639 1.52312 19.2619C1.47748 19.4296 1.11663 20.4429 0.721254 21.5137C0.325831 22.5844 0.00129288 23.5319 2.62462e-05 23.6191C-0.00255392 23.8008 0.185564 24 0.359796 24C0.416747 24 1.47635 23.6611 2.71455 23.247C5.60866 22.2788 5.63052 22.2766 6.81881 22.8254C7.98565 23.3643 9.15152 23.7147 10.3607 23.8899C11.0577 23.9908 12.8272 24.0061 13.4569 23.9165C14.9647 23.7021 16.2056 23.3123 17.4679 22.6566C18.5709 22.0835 19.5121 21.3921 20.4275 20.4824C22.017 18.9025 23.135 16.9359 23.6601 14.7957C23.9173 13.7476 23.9651 13.3005 23.9627 11.967C23.9602 10.6005 23.8969 10.0814 23.5895 8.90867C22.8541 6.10337 21.077 3.61444 18.6636 2.00977C17.1565 1.00763 15.5262 0.384024 13.668 0.0987976C13.0882 0.00980513 11.4216 -0.0321344 10.8767 0.02857ZM13.2458 2.06615C14.3876 2.21951 15.3564 2.51065 16.3654 3.00365C19.3598 4.4666 21.4106 7.28227 21.9028 10.6066C22.0052 11.2979 22.0052 12.683 21.9028 13.3744C21.5916 15.4758 20.6757 17.3617 19.2297 18.8786C17.0216 21.1948 13.8684 22.3154 10.7051 21.9083C6.92821 21.4221 3.70876 18.7723 2.508 15.1614C0.819582 10.0841 3.39595 4.60983 8.3936 2.65584C9.01097 2.41448 9.97417 2.16659 10.6422 2.07713C11.3126 1.98734 12.618 1.98185 13.2458 2.06615ZM10.6307 2.88792C7.17027 3.42989 4.3569 5.80252 3.25817 9.10538C2.16047 12.4052 3.02122 16.0196 5.49354 18.4919C6.85516 19.8535 8.50948 20.7113 10.478 21.0762C10.8171 21.139 11.176 21.1591 11.9791 21.1601C13.1133 21.1616 13.3624 21.1331 14.2915 20.8958C17.8724 19.9811 20.5672 16.9702 21.1033 13.2852C21.2009 12.6147 21.2009 11.3662 21.1033 10.6957C20.5726 7.04729 17.9029 4.03431 14.3771 3.10432C13.5359 2.88243 13.1744 2.83533 12.1668 2.81619C11.383 2.80132 11.0988 2.81459 10.6307 2.88792ZM12.6359 4.9376C12.9507 5.07745 13.2584 5.36704 13.4256 5.68079C13.5371 5.88987 13.5506 5.96629 13.5506 6.38447C13.5506 6.80227 13.537 6.87925 13.4259 7.08815C13.1906 7.53058 12.8338 7.81402 12.3597 7.9351C11.6438 8.11802 10.9001 7.76223 10.5618 7.07492C10.4262 6.79955 10.4076 6.71619 10.4076 6.38447C10.4076 6.05266 10.4262 5.96939 10.562 5.6935C10.9499 4.90561 11.8366 4.58243 12.6359 4.9376ZM11.8343 5.61107C11.5966 5.65203 11.373 5.82682 11.271 6.05144C11.1607 6.2944 11.1606 6.47431 11.2706 6.71656C11.4911 7.20191 12.084 7.33317 12.4947 6.98753C12.6948 6.81916 12.7767 6.63995 12.7767 6.3703C12.7767 5.88589 12.3296 5.52569 11.8343 5.61107ZM12.3798 9.24818C12.8452 9.36874 13.186 9.64337 13.4252 10.0905L13.5507 10.3251V14.1954V18.0656L13.4256 18.3002C13.3569 18.4292 13.2091 18.6234 13.0973 18.7317C12.3069 19.4975 11.0077 19.2545 10.5393 18.2533L10.4076 17.9718V14.1954V10.4189L10.5296 10.1587C10.7512 9.68629 11.1207 9.36926 11.6005 9.23987C11.8919 9.16134 12.0511 9.16303 12.3798 9.24818ZM11.7298 10.0412C11.496 10.1246 11.3755 10.2359 11.2699 10.4658C11.1887 10.6426 11.1837 10.8577 11.1837 14.1954C11.1837 17.5746 11.1878 17.7462 11.2728 17.9335C11.5431 18.5288 12.4022 18.532 12.7107 17.9389C12.8092 17.7498 12.8089 10.6402 12.7105 10.4518C12.6073 10.2543 12.3957 10.0807 12.1903 10.0248C11.9595 9.96204 11.9509 9.96237 11.7298 10.0412Z" fill="white"/>
</svg>
