<svg width="18" height="18" viewBox="0 0 18 18" fill="none" xmlns="http://www.w3.org/2000/svg">
<path d="M6 10.75C6 10.3375 6.3375 10 6.75 10H12V6H8C7.44781 6 7 5.55219 7 5V1H1.5C0.671562 1 0 1.67156 0 2.5V15.5C0 16.3281 0.671562 17 1.5 17H10.5C11.3284 17 12 16.3284 12 15.5V11.5H6.75C6.3375 11.5 6 11.1656 6 10.75ZM8 1V5H12L8 1ZM17.7531 10.2188L15.2531 7.71875C14.9602 7.42578 14.4856 7.42578 14.1925 7.71875C13.8994 8.01172 13.8995 8.48625 14.1925 8.77938L15.4406 10H12V11.5H15.4406L14.2209 12.7197C14.0719 12.8656 14 13.0563 14 13.25C14 13.4437 14.0733 13.6338 14.2197 13.7803C14.5127 14.0733 14.9872 14.0733 15.2803 13.7803L17.7803 11.2803C18.0719 10.9875 18.0719 10.5125 17.7531 10.2188Z" fill="white"/>
</svg>
