<svg width="24" height="24" viewBox="0 0 24 24" fill="none" xmlns="http://www.w3.org/2000/svg">
<g clip-path="url(#clip0_163_46)">
<path d="M20.75 1.5H4.25C3.65326 1.5 3.08097 1.73705 2.65901 2.15901C2.23705 2.58097 2 3.15326 2 3.75L2 20.25C2 20.8467 2.23705 21.419 2.65901 21.841C3.08097 22.2629 3.65326 22.5 4.25 22.5H10.6836V15.3605H7.73047V12H10.6836V9.43875C10.6836 6.52547 12.418 4.91625 15.0744 4.91625C16.3466 4.91625 17.6769 5.14313 17.6769 5.14313V8.0025H16.2111C14.7669 8.0025 14.3164 8.89875 14.3164 9.81797V12H17.5405L17.0248 15.3605H14.3164V22.5H20.75C21.3467 22.5 21.919 22.2629 22.341 21.841C22.7629 21.419 23 20.8467 23 20.25V3.75C23 3.15326 22.7629 2.58097 22.341 2.15901C21.919 1.73705 21.3467 1.5 20.75 1.5Z" fill="white"/>
</g>
<defs>
<clipPath id="clip0_163_46">
<rect width="21" height="24" fill="white" transform="translate(2)"/>
</clipPath>
</defs>
</svg>
