<svg width="28" height="28" viewBox="0 0 28 28" fill="none" xmlns="http://www.w3.org/2000/svg">
<g clip-path="url(#clip0_134_47)">
<path d="M24 7.66667H17.3333V1L24 7.66667ZM17.3333 9.33333H24V25.1667C24 26.5474 22.8807 27.6667 21.5 27.6667H6.5C5.11927 27.6667 4 26.5469 4 25.1667V3.5C4 2.11927 5.11927 1 6.5 1H15.6667L15.6669 7.66667C15.6667 8.58854 16.4115 9.33333 17.3333 9.33333ZM7.33333 5.58333C7.33333 5.81146 7.5224 6 7.75 6H11.9167C12.1458 6 12.3333 5.81146 12.3333 5.58333V4.75C12.3333 4.5224 12.1458 4.33333 11.9167 4.33333H7.75C7.5224 4.33333 7.33333 4.5224 7.33333 4.75V5.58333ZM7.75 9.33333H11.9167C12.1458 9.33333 12.3333 9.14583 12.3333 8.91667V8.08333C12.3333 7.85417 12.1458 7.66667 11.9167 7.66667H7.75C7.5224 7.66667 7.33333 7.85417 7.33333 8.08333V8.91667C7.33333 9.14583 7.5224 9.33333 7.75 9.33333ZM14.2865 17.5L13.9531 17.4167C12.7656 17.0521 12.7917 16.8385 12.8333 16.651C12.9049 16.2442 13.6974 16.1448 14.4099 16.2539C14.7012 16.2979 15.0208 16.4004 15.326 16.5062C15.8672 16.6934 16.463 16.4053 16.6516 15.8635C16.8404 15.3197 16.5531 14.726 16.0094 14.5369C15.6334 14.4076 15.3266 14.3245 15.0427 14.2623V13.9167C15.0427 13.3422 14.5764 12.875 14.001 12.875C13.4257 12.875 12.9594 13.3421 12.9594 13.9167V14.2287C11.7917 14.4792 10.9687 15.2083 10.7812 16.2969C10.3955 18.5281 12.5099 19.1484 13.4125 19.4135L13.7152 19.5015C15.2402 19.9377 15.2152 20.0843 15.1694 20.3494C15.0978 20.7562 14.3053 20.8572 13.5907 20.7465C13.2294 20.6928 12.7673 20.5268 12.3584 20.3803L12.1257 20.2957C11.5835 20.1085 10.9887 20.3901 10.7965 20.9321C10.6053 21.4743 10.8893 22.0696 11.4319 22.2618L11.6541 22.3399C12.0582 22.4852 12.5072 22.6311 12.9593 22.7312V23.0833C12.9593 23.6578 13.4256 24.125 14.001 24.125C14.5764 24.125 15.0427 23.6579 15.0427 23.0833V22.7576C16.2072 22.508 17.0328 21.7925 17.2213 20.704C17.6094 18.4479 15.4479 17.8281 14.2865 17.5Z" fill="#FAFAFA"/>
</g>
<defs>
<clipPath id="clip0_134_47">
<rect width="20" height="26.6667" fill="white" transform="translate(4 1)"/>
</clipPath>
</defs>
</svg>
