<svg width="28" height="28" viewBox="0 0 28 28" fill="none" xmlns="http://www.w3.org/2000/svg">
<g clip-path="url(#clip0_134_44)">
<path d="M17.3333 1V7.66667H24L17.3333 1ZM15.6667 7.66667V1H6.5C5.11927 1 4 2.11927 4 3.5V25.1667C4 26.5469 5.11927 27.6667 6.5 27.6667H21.5C22.8807 27.6667 24 26.5474 24 25.1667V9.33333H17.3802C16.4115 9.33333 15.6667 8.58854 15.6667 7.66667ZM18.1667 22.6667H9.83333C9.375 22.6667 9 22.2917 9 21.8333C9 21.375 9.375 21 9.83333 21H18.1667C18.6269 21 19 21.373 19 21.8333C19 22.2917 18.625 22.6667 18.1667 22.6667ZM18.1667 19.3333H9.83333C9.375 19.3333 9 18.9583 9 18.5C9 18.0417 9.375 17.6667 9.83333 17.6667H18.1667C18.6269 17.6667 19 18.0397 19 18.5C19 18.9583 18.625 19.3333 18.1667 19.3333ZM19 15.1667C19 15.625 18.625 16 18.1667 16H9.83333C9.375 16 9 15.625 9 15.1667C9 14.7083 9.375 14.3333 9.83333 14.3333H18.1667C18.625 14.3333 19 14.7083 19 15.1667Z" fill="#FAFAFA"/>
</g>
<defs>
<clipPath id="clip0_134_44">
<rect width="20" height="26.6667" fill="white" transform="translate(4 1)"/>
</clipPath>
</defs>
</svg>
