<svg width="20" height="20" viewBox="0 0 20 20" fill="none" xmlns="http://www.w3.org/2000/svg">
<g clip-path="url(#clip0_47_88)">
<path d="M20 8.44922C20 8.20996 19.9084 7.9707 19.7254 7.78789L18.8399 6.90625C18.6567 6.7232 18.4164 6.63172 18.2109 6.63172C18.0055 6.63172 17.7301 6.72324 17.582 6.90625L17.3623 7.12598L12.875 2.70625L13.0947 2.48652C13.2778 2.3034 13.3693 2.06309 13.3693 1.85762C13.3693 1.65215 13.2778 1.37676 13.0947 1.22871L12.2111 0.345117C12.0273 0.0915625 11.7891 0 11.5508 0C11.3125 0 11.0762 0.0915625 10.893 0.274648L6.02344 5.13672C5.84375 5.32031 5.75 5.55859 5.75 5.80078C5.75 6.04297 5.84157 6.2793 6.02465 6.4625L6.90825 7.34609C7.09137 7.52922 7.33168 7.62074 7.53715 7.62074C7.77762 7.62074 8.01801 7.52918 8.16606 7.34609L8.38578 7.12637L12.8038 11.5443L12.584 11.7639C12.4009 11.947 12.3094 12.1873 12.3094 12.3928C12.3094 12.5983 12.4009 12.8737 12.584 13.0217L13.4676 13.9053C13.6507 14.0884 13.8899 14.18 14.1293 14.18C14.3688 14.18 14.6079 14.0884 14.7911 13.9053L19.6543 9.03813C19.9102 8.92578 20 8.69141 20 8.44922ZM8.89844 9.30078L6.61719 11.6172C6.3711 11.3711 6.05078 11.25 5.73047 11.25C5.41016 11.25 5.09375 11.3711 4.84766 11.6172L0.367188 16.0977C0.123047 16.3417 0.000976562 16.6613 0.000976562 16.9813C0.000976562 17.3012 0.123047 17.6207 0.367188 17.8648L2.13477 19.6324C2.37774 19.8789 2.69766 20 3.01758 20C3.3375 20 3.65703 19.8779 3.90117 19.6338L8.38164 15.1533C8.62578 14.9092 8.74789 14.5893 8.74789 14.2697C8.74789 13.95 8.62582 13.6303 8.38172 13.3861L10.6641 11.1037L8.89844 9.30078Z" fill="#F8B917"/>
</g>
<defs>
<clipPath id="clip0_47_88">
<rect width="20" height="20" fill="white"/>
</clipPath>
</defs>
</svg>
