<svg width="24" height="24" viewBox="0 0 24 24" fill="none" xmlns="http://www.w3.org/2000/svg">
<path fill-rule="evenodd" clip-rule="evenodd" d="M11.2969 2.61947V5.23889L10.8867 5.27273C10.0874 5.33869 9.19416 5.64225 8.58942 6.05344C8.2695 6.27098 7.6635 6.86784 7.43016 7.19531C7.23112 7.47455 6.89062 8.10989 6.89062 8.20195C6.89062 8.23448 8.54203 8.25 12 8.25C15.458 8.25 17.1094 8.23448 17.1094 8.20195C17.1094 8.11036 16.7693 7.4752 16.5693 7.19316C16.2734 6.77592 15.5905 6.15 15.1717 5.91216C14.4943 5.52741 14.0057 5.37183 13.207 5.28647L12.7031 5.23261V4.65534V4.07812H14.3203H15.9375V2.03906V0H13.6172H11.2969V2.61947ZM3.28125 10.8281V12H12H20.7188V10.8281V9.65625H12H3.28125V10.8281ZM0 18.7031V24H4.6875H9.375V21.3047V18.6094H12H14.625V21.3047V24H19.3125H24V18.7031V13.4062H12H0V18.7031ZM3.5625 16.4766V17.625H2.85938H2.15625V16.4766V15.3281H2.85938H3.5625V16.4766ZM6.46875 16.4766V17.625H5.76562H5.0625V16.4766V15.3281H5.76562H6.46875V16.4766ZM18.9375 16.4766V17.625H18.2344H17.5312V16.4766V15.3281H18.2344H18.9375V16.4766ZM21.8438 16.4766V17.625H21.1406H20.4375V16.4766V15.3281H21.1406H21.8438V16.4766ZM14.625 16.2656V16.9688H12H9.375V16.2656V15.5625H12H14.625V16.2656ZM3.5625 20.2266V21.375H2.85938H2.15625V20.2266V19.0781H2.85938H3.5625V20.2266ZM6.46875 20.2266V21.375H5.76562H5.0625V20.2266V19.0781H5.76562H6.46875V20.2266ZM18.9375 20.2266V21.375H18.2344H17.5312V20.2266V19.0781H18.2344H18.9375V20.2266ZM21.8438 20.2266V21.375H21.1406H20.4375V20.2266V19.0781H21.1406H21.8438V20.2266ZM10.7812 22.0078V24H12H13.2188V22.0078V20.0156H12H10.7812V22.0078Z" fill="white"/>
</svg>
