<svg width="20" height="20" viewBox="0 0 20 20" fill="none" xmlns="http://www.w3.org/2000/svg">
<g clip-path="url(#clip0_134_50)">
<path d="M19.7292 12.6771C19.2736 12.0587 18.4049 11.925 17.7872 12.383L13.6309 15.4445H9.4434C9.13965 15.4445 8.9191 15.1927 8.9191 14.8893C8.9191 14.5855 9.17083 14.3337 9.4434 14.3337H12.1604C12.6847 14.3337 13.2281 13.9559 13.3191 13.4094C13.4319 12.715 12.8983 12.1115 12.2212 12.1115H6.63542C5.72917 12.1115 4.79097 12.4327 4.06181 13.023L2.44722 14.3334L0.524306 14.3021C0.251771 14.3021 0 14.5868 0 14.8889V18.2215C0 18.5278 0.251771 18.7778 0.524306 18.7778H12.5417C13.3066 18.7778 14.0667 18.5282 14.684 18.074L19.375 14.6184C20.0521 14.1632 20.184 13.2951 19.7292 12.6771ZM9.69792 7.07639C9.43403 7.03819 9.08681 6.91319 8.78125 6.80208L8.61111 6.74306C8.17708 6.55903 7.70139 6.81597 7.54861 7.21875C7.39583 7.62153 7.62226 8.12847 8.05521 8.28264L8.21684 8.34014C8.51149 8.44642 8.83767 8.55177 9.16788 8.62875V9.05556C9.16788 9.51563 9.54045 9.88889 10.0005 9.88889C10.4606 9.88889 10.8339 9.51563 10.8339 9.05556V8.69445C11.7113 8.49573 12.3227 7.93576 12.4345 7.10694C12.7362 5.3691 11.0842 4.89653 10.1977 4.6434L10.0139 4.57986C9.10069 4.32083 9.15278 4.20903 9.17708 4.06632C9.21722 3.83139 9.70833 3.71701 10.2955 3.80969C10.4669 3.83682 10.6903 3.89813 10.9778 3.99795C11.4128 4.1466 11.8878 3.91767 12.0375 3.48267C12.1872 3.04767 11.9573 2.5733 11.5222 2.4226C11.2583 2.33139 11.0389 2.27128 10.834 2.22396V1.83333C10.834 1.37326 10.4608 1 10.0007 1C9.54063 1 9.16806 1.37326 9.16806 1.83333V2.19861C8.29167 2.39688 7.67708 2.95313 7.50347 3.78229C7.23611 5.5 8.91319 5.99306 9.54514 6.18056L9.77076 6.24566C10.8701 6.56031 10.8524 6.65851 10.8242 6.82344C10.7847 7.05903 10.2951 7.17361 9.69792 7.07639Z" fill="#FAFAFA"/>
</g>
<defs>
<clipPath id="clip0_134_50">
<rect width="20" height="17.7778" fill="white" transform="translate(0 1)"/>
</clipPath>
</defs>
</svg>
