<svg width="20" height="19" viewBox="0 0 20 19" fill="none" xmlns="http://www.w3.org/2000/svg">
<g clip-path="url(#clip0_47_84)">
<path d="M19.9931 9.48264C19.9931 10.1076 19.4722 10.5972 18.8819 10.5972H17.7708L17.7951 16.1563C17.7951 16.2535 17.7882 16.3438 17.7778 16.4375V17C17.7778 17.7674 17.1562 18.3889 16.3889 18.3889H15.8333C15.7951 18.3889 15.7569 18.3576 15.7187 18.3854C15.6701 18.3576 15.6215 18.3889 15.5729 18.3889H13.6111C12.8437 18.3889 12.2222 17.7674 12.2222 17V13.9444C12.2222 13.3299 11.7257 12.8333 11.1111 12.8333H8.88889C8.27431 12.8333 7.77778 13.3299 7.77778 13.9444V17C7.77778 17.7674 7.15625 18.3889 6.38889 18.3889H4.44792C4.39583 18.3889 4.34375 18.3854 4.29167 18.3819C4.25 18.3854 4.20833 18.3889 4.16667 18.3889H3.61111C2.8441 18.3889 2.22222 17.7674 2.22222 17V13.1111C2.22222 13.0799 2.22326 13.0451 2.22535 13.0139V10.5972H1.11285C0.486805 10.5972 0 10.1076 0 9.48264C0 9.17014 0.104306 8.89236 0.347569 8.64931L9.25 0.889448C9.49305 0.645906 9.77083 0.611115 10.0139 0.611115C10.2569 0.611115 10.5347 0.680698 10.7465 0.854656L19.6111 8.64931C19.8889 8.89236 20.0312 9.17014 19.9931 9.48264Z" fill="#FAFAFA"/>
</g>
<defs>
<clipPath id="clip0_47_84">
<rect width="20" height="17.7778" fill="white" transform="translate(0 0.611115)"/>
</clipPath>
</defs>
</svg>
