<svg width="24" height="24" viewBox="0 0 24 24" fill="none" xmlns="http://www.w3.org/2000/svg">
<g clip-path="url(#clip0_163_46)">
<path d="M11.5048 6.60937C8.52353 6.60937 6.11884 9.01405 6.11884 11.9953C6.11884 14.9766 8.52353 17.3812 11.5048 17.3812C14.486 17.3812 16.8907 14.9766 16.8907 11.9953C16.8907 9.01405 14.486 6.60937 11.5048 6.60937ZM11.5048 15.4969C9.57822 15.4969 8.00322 13.9265 8.00322 11.9953C8.00322 10.0641 9.57353 8.49374 11.5048 8.49374C13.436 8.49374 15.0063 10.0641 15.0063 11.9953C15.0063 13.9265 13.4313 15.4969 11.5048 15.4969ZM18.3673 6.38905C18.3673 7.08749 17.8048 7.6453 17.111 7.6453C16.4126 7.6453 15.8548 7.0828 15.8548 6.38905C15.8548 5.6953 16.4173 5.1328 17.111 5.1328C17.8048 5.1328 18.3673 5.6953 18.3673 6.38905ZM21.9345 7.66405C21.8548 5.98124 21.4704 4.49062 20.2376 3.26249C19.0095 2.03437 17.5188 1.64999 15.836 1.56562C14.1016 1.46718 8.90322 1.46718 7.16884 1.56562C5.49072 1.64531 4.0001 2.02968 2.76728 3.25781C1.53447 4.48593 1.15479 5.97655 1.07041 7.65937C0.971973 9.39374 0.971973 14.5922 1.07041 16.3265C1.1501 18.0094 1.53447 19.5 2.76728 20.7281C4.0001 21.9562 5.48603 22.3406 7.16884 22.425C8.90322 22.5234 14.1016 22.5234 15.836 22.425C17.5188 22.3453 19.0095 21.9609 20.2376 20.7281C21.4657 19.5 21.8501 18.0094 21.9345 16.3265C22.0329 14.5922 22.0329 9.39843 21.9345 7.66405ZM19.6938 18.1875C19.3282 19.1062 18.6204 19.814 17.697 20.1844C16.3141 20.7328 13.0329 20.6062 11.5048 20.6062C9.97665 20.6062 6.69072 20.7281 5.31259 20.1844C4.39384 19.8187 3.68603 19.1109 3.31572 18.1875C2.76728 16.8047 2.89385 13.5234 2.89385 11.9953C2.89385 10.4672 2.77197 7.18124 3.31572 5.80312C3.68135 4.88437 4.38916 4.17655 5.31259 3.80624C6.69541 3.25781 9.97665 3.38437 11.5048 3.38437C13.0329 3.38437 16.3188 3.26249 17.697 3.80624C18.6157 4.17187 19.3235 4.87968 19.6938 5.80312C20.2423 7.18593 20.1157 10.4672 20.1157 11.9953C20.1157 13.5234 20.2423 16.8094 19.6938 18.1875Z" fill="white"/>
</g>
<defs>
<clipPath id="clip0_163_46">
<rect width="21" height="24" fill="white" transform="translate(1)"/>
</clipPath>
</defs>
</svg>
