<svg width="20" height="19" viewBox="0 0 20 19" fill="none" xmlns="http://www.w3.org/2000/svg">
<path d="M1.91315 2.89029C1.91315 2.42988 2.31732 2.05696 2.74649 2.05696H3.8576C4.35065 2.05696 4.69093 2.42988 4.69093 2.89029V7.05557H5.24648C5.73954 7.05557 6.07982 7.43057 6.07982 7.8889C6.07982 8.35071 5.73954 8.72224 5.24648 8.72224H2.46871C2.03954 8.72224 1.63537 8.35071 1.63537 7.8889C1.63537 7.43057 2.03954 7.05557 2.46871 7.05557H3.02426V3.72363H2.74649C2.31732 3.72363 1.91315 3.35036 1.91315 2.89029ZM4.12148 12.7917C3.89232 12.5347 3.48607 12.5521 3.28642 12.8333L2.9003 13.3715C2.63294 13.7465 2.11246 13.8333 1.73781 13.566C1.36315 13.2986 1.27669 12.7778 1.54406 12.4063L1.93017 11.8646C2.75447 10.7083 4.44093 10.625 5.37496 11.6945C6.11454 12.5104 6.09718 13.809 5.33676 14.6354L4.12496 15.9445H5.27773C5.73954 15.9445 6.11107 16.316 6.11107 16.7778C6.11107 17.2396 5.73954 17.6111 5.27773 17.6111H2.22218C1.89128 17.6111 1.59163 17.4167 1.45899 17.1111C1.326 16.809 1.38538 16.4549 1.60968 16.2118L4.11107 13.5035C4.2951 13.3021 4.29857 12.9965 4.12148 12.7917ZM17.7777 3.16668C18.3923 3.16668 18.8888 3.66425 18.8888 4.27779C18.8888 4.89238 18.3923 5.3889 17.7777 5.3889H8.88884C8.27426 5.3889 7.77773 4.89238 7.77773 4.27779C7.77773 3.66425 8.27426 3.16668 8.88884 3.16668H17.7777ZM17.7777 8.72224C18.3923 8.72224 18.8888 9.21876 18.8888 9.83335C18.8888 10.4479 18.3923 10.9445 17.7777 10.9445H8.88884C8.27426 10.9445 7.77773 10.4479 7.77773 9.83335C7.77773 9.21876 8.27426 8.72224 8.88884 8.72224H17.7777ZM17.7777 14.2778C18.3923 14.2778 18.8888 14.7743 18.8888 15.3889C18.8888 16.0035 18.3923 16.5 17.7777 16.5H8.88884C8.27426 16.5 7.77773 16.0035 7.77773 15.3889C7.77773 14.7743 8.27426 14.2778 8.88884 14.2778H17.7777Z" fill="#FAFAFA"/>
</svg>
