<svg width="24" height="24" viewBox="0 0 24 24" fill="none" xmlns="http://www.w3.org/2000/svg">
<path fill-rule="evenodd" clip-rule="evenodd" d="M4.1261 0.0653138C3.68739 0.203355 3.37476 0.458323 3.16113 0.852364L3 1.14956V12.0117V22.8739L3.16113 23.1711C3.33877 23.4987 3.59003 23.7311 3.94217 23.8935L4.17302 24H12.173H20.173L20.438 23.8758C20.7609 23.7244 21.0411 23.4526 21.2154 23.1218L21.346 22.8739L21.3583 14.5555L21.3705 6.23723L21.2548 6.12152L21.1392 6.00587H19.3604C18.3821 6.00587 17.468 5.98489 17.329 5.95923C17.19 5.93361 16.9045 5.82822 16.6946 5.72504C16.0517 5.40913 15.5822 4.8008 15.4311 4.08784C15.3813 3.8529 15.365 3.34452 15.3644 2.00375L15.3636 0.230334L15.2484 0.115191L15.1333 0L9.72352 0.0031437C5.51411 0.00558358 4.27212 0.0193783 4.1261 0.0653138ZM16.3164 0.113267L16.1847 0.226581V2.09567V3.96481L16.3084 4.2285C16.4823 4.59932 16.7305 4.85377 17.0919 5.03179L17.4024 5.18475L19.1865 5.19864C20.1678 5.20629 21.0186 5.20047 21.0774 5.18569C21.2562 5.14083 21.3695 4.9905 21.3695 4.79817C21.3695 4.62921 21.2844 4.53762 19.0581 2.31137C16.9758 0.229067 16.7319 0 16.5974 0C16.5071 0 16.3959 0.0448094 16.3164 0.113267ZM9.98257 4.74665C10.1392 4.83012 10.1992 4.93344 10.2008 5.12267C10.202 5.25424 10.173 5.31833 10.0787 5.39247C9.95822 5.48725 9.90637 5.48974 8.04399 5.48974C6.18161 5.48974 6.12976 5.48725 6.00927 5.39247C5.80023 5.22806 5.84697 4.88291 6.09677 4.74628C6.23256 4.672 9.84303 4.67238 9.98257 4.74665ZM12.1047 7.341C12.2539 7.49011 12.2547 7.69633 12.1067 7.86834L11.9935 8L9.1859 8.0138C7.64174 8.02135 6.30961 8.01511 6.22562 7.99986C5.9051 7.94182 5.77053 7.56551 5.98764 7.33438L6.08969 7.22581H9.03965H11.9896L12.1047 7.341ZM18.3452 10.5316L18.4604 10.6468V14.8914C18.4604 17.2259 18.4473 19.1702 18.4313 19.212C18.3471 19.4312 18.5231 19.4252 12.173 19.4252C5.8229 19.4252 5.9989 19.4312 5.91477 19.212C5.89877 19.1702 5.88563 17.2259 5.88563 14.8914V10.6468L6.00082 10.5316L6.11596 10.4164H12.173H18.2301L18.3452 10.5316ZM6.79847 11.3293C6.68643 11.4413 6.68328 11.4636 6.68328 12.1465C6.68328 12.5327 6.69642 12.8828 6.71242 12.9246C6.79425 13.1378 6.79514 13.1378 10.5555 13.1378H14.104L14.2411 13.0007L14.3783 12.8635V12.176V11.4884L14.2411 11.3512L14.104 11.2141H10.5088H6.91362L6.79847 11.3293ZM15.3807 11.269C15.2112 11.351 15.176 11.5124 15.176 12.2052V12.8635L15.3131 13.0007L15.4503 13.1378H16.3946C17.3775 13.1378 17.5641 13.1057 17.6336 12.9246C17.6496 12.8828 17.6628 12.5327 17.6628 12.1465C17.6628 11.4636 17.6596 11.4413 17.5476 11.3293C17.4325 11.2141 17.432 11.2141 16.4567 11.2173C15.8875 11.2191 15.4392 11.2406 15.3807 11.269ZM6.79847 14.0507C6.6861 14.163 6.68328 14.1836 6.68328 14.8914C6.68328 15.2905 6.69642 15.6511 6.71242 15.6929C6.79425 15.9061 6.79514 15.9062 10.5555 15.9062H14.104L14.2411 15.769L14.3783 15.6319V14.9208V14.2098L14.2411 14.0726L14.104 13.9355H10.5088H6.91362L6.79847 14.0507ZM15.3596 13.9956C15.2028 14.116 15.176 14.2547 15.176 14.9448V15.6319L15.3131 15.769L15.4503 15.9062H16.3954C17.3507 15.9062 17.4763 15.8871 17.6026 15.7226C17.6418 15.6715 17.6602 15.4155 17.6613 14.907C17.6627 14.1817 17.6603 14.1634 17.5476 14.0507L17.4324 13.9355L16.4332 13.937C15.7218 13.938 15.4126 13.9549 15.3596 13.9956ZM6.79847 16.819C6.68605 16.9314 6.68328 16.9517 6.68328 17.6636C6.68328 18.3273 6.69164 18.4013 6.77595 18.4856C6.82691 18.5366 6.91662 18.59 6.97537 18.6044C7.03406 18.6188 8.67282 18.6246 10.617 18.6173L14.1519 18.6041L14.2651 18.4724C14.3734 18.3465 14.3783 18.3116 14.3783 17.6667C14.3783 17.0099 14.3752 16.9888 14.2568 16.8482L14.1353 16.7038H10.5245H6.91362L6.79847 16.819ZM15.3596 16.764C15.2037 16.8836 15.176 17.0237 15.176 17.6897V18.3533L15.3131 18.4904L15.4503 18.6276H16.3954C17.3507 18.6276 17.4763 18.6085 17.6026 18.444C17.6416 18.3931 17.6602 18.1419 17.6613 17.6518C17.6627 16.9515 17.66 16.9314 17.5476 16.819L17.4324 16.7038L16.4332 16.7053C15.7218 16.7063 15.4126 16.7232 15.3596 16.764Z" fill="white"/>
</svg>
