<svg width="24" height="24" viewBox="0 0 24 24" fill="none" xmlns="http://www.w3.org/2000/svg">
<path d="M13.5 6V0H5.25C4.00734 0 3 1.00734 3 2.25V21.75C3 22.9922 4.00734 24 5.25 24H18.75C19.9927 24 21 22.9927 21 21.75V7.5H15.0422C14.1703 7.5 13.5 6.82969 13.5 6ZM16.1953 11.25H17.2908C17.6525 11.25 17.9203 11.5866 17.8387 11.9391L15.8484 20.5641C15.7922 20.8172 15.5625 21 15.3047 21H13.9331C13.6788 21 13.4559 20.8293 13.3898 20.5836L12 15.4266L10.612 20.5406C10.5047 20.8313 10.3219 21 10.0688 21H8.69531C8.43337 21 8.20594 20.8191 8.14734 20.5638L6.15703 11.9388C6.07781 11.5875 6.34547 11.25 6.70688 11.25H7.80234C8.06428 11.25 8.29172 11.4309 8.35031 11.686L9.45938 16.5L10.7625 11.6672C10.8281 11.4187 11.0531 11.25 11.3062 11.25H12.6942C12.9486 11.25 13.1714 11.4207 13.2375 11.6664L14.5406 16.5L15.6516 11.6859C15.7078 11.4328 15.8953 11.25 16.1953 11.25ZM15 0V6H21L15 0Z" fill="#FAA21C"/>
</svg>
