<svg width="24" height="24" viewBox="0 0 24 24" fill="none" xmlns="http://www.w3.org/2000/svg">
<path fill-rule="evenodd" clip-rule="evenodd" d="M13.8853 0.0730226C13.6035 0.172882 13.2928 0.466272 13.1617 0.756286L13.0497 1.0042V3.79703V6.58981L13.1908 6.86581C13.4502 7.37289 13.8829 7.59117 14.6288 7.59117C14.8562 7.59117 15.0422 7.60458 15.0422 7.62099C15.0422 7.6374 14.978 8.15859 14.8995 8.77917C14.821 9.39971 14.7631 9.94256 14.7706 9.9855C14.7802 10.0399 15.2092 9.69089 16.1908 8.83004L17.5973 7.59652L20.3165 7.58212C23.3445 7.56609 23.1888 7.58264 23.573 7.23557C23.6809 7.13815 23.8151 6.97261 23.8712 6.86768C23.9729 6.67772 23.9733 6.66571 23.9733 3.7937V0.910435L23.8287 0.652582C23.6715 0.372366 23.3645 0.127172 23.0674 0.0446588C22.9553 0.013482 21.3543 -0.00203606 18.488 0.000214293C14.7234 0.003121 14.0526 0.0137633 13.8853 0.0730226ZM15.9895 2.60073C17.013 2.94954 17.1181 4.37162 16.1591 4.89605C15.9481 5.01147 15.8589 5.032 15.5813 5.02933C15.3835 5.02746 15.183 4.99516 15.0763 4.94804C14.6202 4.7464 14.3223 4.27917 14.3256 3.77026C14.3278 3.42896 14.4136 3.21067 14.6474 2.95197C15.0009 2.56055 15.4933 2.43167 15.9895 2.60073ZM18.9586 2.60603C19.1023 2.65502 19.2689 2.7651 19.4045 2.90069C20.1079 3.60416 19.755 4.79614 18.7786 5.01466C17.9191 5.20702 17.1057 4.41025 17.2889 3.55563C17.3525 3.25934 17.4315 3.10814 17.6256 2.91128C17.9796 2.55216 18.4706 2.43974 18.9586 2.60603ZM21.9106 2.60551C22.1722 2.69464 22.4764 2.97504 22.6147 3.25455C22.7481 3.52417 22.7418 4.07434 22.6023 4.33913C22.3067 4.90008 21.706 5.16346 21.1144 4.9915C20.7343 4.881 20.3781 4.52539 20.2679 4.14649C19.977 3.14583 20.9148 2.26618 21.9106 2.60551ZM15.3586 3.42239C15.3135 3.44869 15.2437 3.53374 15.2036 3.61138C15.0661 3.87734 15.2873 4.21564 15.5989 4.21564C15.6497 4.21564 15.7563 4.16102 15.8356 4.09426C15.9519 3.99637 15.9798 3.93697 15.9798 3.78728C15.9798 3.46759 15.6319 3.26323 15.3586 3.42239ZM18.2652 3.46477C18.0295 3.65019 18.0657 4.0118 18.334 4.15052C18.6076 4.29201 18.9351 4.08667 18.9319 3.77565C18.9285 3.43664 18.5346 3.25296 18.2652 3.46477ZM21.1744 3.51456C21.0514 3.63754 21.0354 3.68118 21.0593 3.82825C21.0985 4.06993 21.235 4.19009 21.4703 4.19009C21.8518 4.19009 22.0204 3.77931 21.75 3.5088C21.5635 3.32235 21.3646 3.32436 21.1744 3.51456ZM5.22034 5.36712C4.33923 5.53102 3.55039 5.85085 2.80758 6.34537C1.45639 7.2449 0.552026 8.55564 0.14504 10.2043C0.0344443 10.6525 0.0186919 10.8189 0.00429897 11.6934C-0.00460868 12.2349 0.000782793 12.7469 0.016254 12.8313C0.0486497 13.0074 0.274201 13.2841 0.466418 13.3835C0.555823 13.4298 0.749822 13.4515 1.07392 13.4515C1.50852 13.4515 1.54729 13.4443 1.51766 13.3694C1.34387 12.9303 1.29061 12.5591 1.29061 11.7871C1.29061 11.0152 1.34387 10.644 1.51766 10.2049C1.54598 10.1332 1.51982 10.1228 1.31068 10.1228C1.01757 10.1228 1.01433 10.1027 1.22526 9.58367C1.53257 8.82737 1.86942 8.32005 2.46605 7.71499C3.12095 7.05081 3.97106 6.56248 4.94533 6.2908C5.37913 6.16984 5.46469 6.16196 6.32207 6.16384C7.16089 6.16571 7.27407 6.17612 7.69465 6.29014C9.17051 6.69014 10.4225 7.68325 11.1317 9.01649C11.2941 9.32179 11.5729 10.0112 11.5729 10.1076C11.5729 10.116 11.4674 10.1228 11.3385 10.1228C11.2096 10.1228 11.1041 10.1351 11.1041 10.1502C11.1041 10.1652 11.1484 10.3498 11.2026 10.5604C11.3918 11.296 11.3916 12.2741 11.2022 13.0139C11.1482 13.2245 11.1041 13.411 11.1041 13.4283C11.1041 13.4456 11.3326 13.4526 11.6119 13.4439C12.0785 13.4293 12.1331 13.4178 12.2851 13.3017C12.5944 13.0655 12.6112 12.9796 12.5918 11.7282C12.579 10.8949 12.5549 10.5327 12.4958 10.2873C12.1835 8.98916 11.6627 8.04701 10.757 7.14124C9.85124 6.23552 8.86596 5.69183 7.61134 5.40547C7.14036 5.29797 5.71504 5.27514 5.22034 5.36712ZM5.3141 7.7021C4.56291 7.90135 3.99535 8.20693 3.46567 8.69722C2.6261 9.47434 2.17673 10.4418 2.11757 11.5996C2.05883 12.749 2.44284 13.7967 3.23309 14.6429C3.77331 15.2214 4.30993 15.56 5.10313 15.8229C5.47374 15.9458 5.55573 15.9552 6.27519 15.9573C6.94336 15.9593 7.09845 15.9453 7.41354 15.854C8.24027 15.6143 9.063 15.0732 9.57205 14.4343C9.72039 14.2481 9.83286 14.0868 9.82198 14.0759C9.81111 14.0651 9.61518 14.0881 9.38659 14.1272C9.15799 14.1662 8.73886 14.2212 8.45522 14.2493C8.17158 14.2774 7.93314 14.3184 7.92531 14.3405C7.87266 14.4891 7.60492 14.8182 7.45846 14.9144C7.16267 15.1087 7.00131 15.1393 6.27993 15.1382C5.69333 15.1373 5.5652 15.1235 5.38443 15.0418C4.93829 14.8401 4.68105 14.4655 4.64514 13.9654C4.6171 13.5751 4.74551 13.2525 5.03496 12.9857C5.37481 12.6724 5.4999 12.6377 6.30196 12.6342C6.99798 12.6311 7.0126 12.6331 7.28447 12.7721C7.5337 12.8996 7.72597 13.0913 7.8932 13.3788C7.9367 13.4537 7.98316 13.4562 8.45578 13.4084C8.99606 13.3538 9.63403 13.234 10.0779 13.1038L10.341 13.0266L10.4217 12.6532C10.5155 12.2193 10.5277 11.4548 10.448 11.0152C10.2181 9.74715 9.35321 8.60772 8.17393 8.01916C7.56844 7.717 7.19863 7.63069 6.41584 7.60899C5.81148 7.59225 5.68921 7.60256 5.3141 7.7021ZM16.1504 13.4387C16.2349 14.1032 16.3049 14.6601 16.306 14.6761C16.3071 14.6921 16.0787 14.7147 15.7984 14.7262C15.3641 14.7442 15.25 14.7662 15.027 14.8753C14.7346 15.0184 14.5592 15.2011 14.4136 15.5143C14.3185 15.7188 14.3155 15.7918 14.3155 17.9053C14.3155 20.3365 14.304 20.2423 14.6477 20.6227C14.7451 20.7306 14.9106 20.8647 15.0156 20.9209L15.2063 21.023H19.1444H23.0825L23.3101 20.9067C23.5592 20.7795 23.7118 20.6211 23.8701 20.3252C23.9715 20.1355 23.9735 20.0954 23.9868 17.9814C23.9988 16.0712 23.9916 15.8042 23.9218 15.5941C23.8254 15.304 23.5503 14.9966 23.2562 14.8504C23.0373 14.7415 23.02 14.7405 20.9383 14.7173L18.8408 14.6938L17.4489 13.4749C16.6834 12.8045 16.0435 12.2502 16.027 12.2432C16.0105 12.2361 16.066 12.7741 16.1504 13.4387ZM5.72803 13.5172C5.45606 13.6403 5.38804 13.9751 5.59329 14.1803C5.70351 14.2905 5.73361 14.2953 6.31176 14.2953C6.89657 14.2953 6.91865 14.2917 7.02653 14.1769C7.18316 14.0102 7.1766 13.769 7.01092 13.6033C6.8908 13.4832 6.85695 13.4757 6.38035 13.4632C6.01907 13.4537 5.83464 13.469 5.72803 13.5172ZM3.32202 16.4048C2.78259 16.729 2.50355 16.9528 2.04767 17.4269C1.28484 18.2201 0.788829 19.1576 0.529569 20.2963C0.46595 20.5756 0.44504 20.9637 0.427881 22.1826L0.406268 23.7173L0.547619 23.8586L0.688969 24H1.81776H2.94654V22.6602V21.3205L3.08935 21.1777C3.21232 21.0547 3.25597 21.0387 3.40304 21.0626C3.49699 21.0778 3.61729 21.1337 3.67041 21.1868C3.76281 21.2791 3.76759 21.3423 3.78072 22.6416L3.7945 24H6.32409H8.85372V22.6446V21.2892L8.99798 21.1678C9.16249 21.0293 9.27051 21.0171 9.46043 21.1153C9.67632 21.227 9.6976 21.3729 9.6976 22.7412V24H10.7782C11.9049 24 12.082 23.9726 12.1533 23.7869C12.1692 23.7452 12.1824 23.0611 12.1824 22.2667C12.1824 20.7115 12.1523 20.4178 11.9158 19.6669C11.4749 18.2667 10.413 16.9925 9.09953 16.2877L8.85306 16.1554L8.44317 16.3475C7.63825 16.7247 6.98021 16.8541 6.07088 16.8143C5.3871 16.7844 4.79722 16.6427 4.19408 16.3636C3.96487 16.2575 3.76253 16.1706 3.74448 16.1706C3.72638 16.1706 3.53632 16.276 3.32202 16.4048ZM17.5546 16.56C17.707 16.7374 17.7061 16.9803 17.5525 17.1338C17.4394 17.247 17.4241 17.2489 16.6409 17.2489C15.8705 17.2489 15.8402 17.2453 15.7152 17.1378C15.4894 16.9435 15.5685 16.5732 15.8626 16.4478C15.9142 16.4257 16.2906 16.4124 16.699 16.4181L17.4415 16.4285L17.5546 16.56ZM22.5304 16.4976C22.7708 16.6442 22.7947 16.9546 22.5808 17.1539C22.482 17.246 22.4224 17.2489 20.6421 17.2489C18.8813 17.2489 18.8006 17.2451 18.6872 17.1559C18.5374 17.0381 18.4897 16.852 18.5637 16.6735C18.6692 16.4186 18.7453 16.4089 20.6446 16.4071C22.2881 16.4055 22.3872 16.4103 22.5304 16.4976ZM19.6642 18.6698C19.8187 18.8494 19.8145 19.0743 19.6537 19.2351L19.5301 19.3586H17.6951C16.0884 19.3586 15.8467 19.3493 15.7529 19.2836C15.5978 19.175 15.5444 19.0023 15.6072 18.8122C15.7048 18.5165 15.7111 18.5156 17.7303 18.5275L19.5511 18.5382L19.6642 18.6698ZM22.6179 18.6698C22.7742 18.8517 22.7656 19.0499 22.5939 19.2216L22.4568 19.3586H21.676H20.8953L20.7582 19.2216C20.6103 19.0737 20.5885 18.9314 20.6866 18.7543C20.8069 18.5373 20.9153 18.5138 21.7388 18.5264L22.5048 18.5382L22.6179 18.6698Z" fill="white"/>
</svg>
