<svg width="24" height="24" viewBox="0 0 24 24" fill="none" xmlns="http://www.w3.org/2000/svg">
<path d="M7.125 14.25H6.75V12H7.125C7.74844 12 8.25 12.5016 8.25 13.125C8.25 13.7484 7.74844 14.25 7.125 14.25ZM12 12H12.375C12.7875 12 13.125 12.3375 13.125 12.75V15.75C13.125 16.1625 12.7875 16.5 12.375 16.5H12V12ZM13.5 0V6C13.5 6.82969 14.1703 7.5 15 7.5H21V21C21 22.6547 19.6547 24 18 24H6C4.34297 24 3 22.6547 3 21V3C3 1.34297 4.34297 0 6 0H13.5ZM6 10.5C5.58562 10.5 5.25 10.8375 5.25 11.25V17.25C5.25 17.6625 5.58562 18 6 18C6.41438 18 6.75 17.6625 6.75 17.25V15.75H7.125C8.57344 15.75 9.75 14.5734 9.75 13.125C9.75 11.6766 8.57344 10.5 7.125 10.5H6ZM10.5 17.25C10.5 17.6625 10.8375 18 11.25 18H12.375C13.6172 18 14.625 16.9922 14.625 15.75V12.75C14.625 11.5078 13.6172 10.5 12.375 10.5H11.25C10.8375 10.5 10.5 10.8375 10.5 11.25V17.25ZM16.5 10.5C16.0875 10.5 15.75 10.8375 15.75 11.25V17.25C15.75 17.6625 16.0875 18 16.5 18C16.9125 18 17.25 17.6625 17.25 17.25V15H18.75C19.1625 15 19.5 14.6625 19.5 14.25C19.5 13.8375 19.1625 13.5 18.75 13.5H17.25V12H18.75C19.1625 12 19.5 11.6625 19.5 11.25C19.5 10.8375 19.1625 10.5 18.75 10.5H16.5ZM15 0L21 6H15V0Z" fill="#FAA21C"/>
</svg>
