<svg width="20" height="16" viewBox="0 0 20 16" fill="none" xmlns="http://www.w3.org/2000/svg">
<g clip-path="url(#clip0_47_105)">
<path d="M17.3407 4.82812C16.79 3.72656 15.2119 3.7225 14.6572 4.82812C11.9385 10.275 12.0291 10.0125 12.0291 10.5C12.0291 11.8791 13.8182 13 16.0291 13C18.24 13 20.001 11.8787 20.001 10.5C19.9719 9.99687 20.0438 10.2281 17.3407 4.82812ZM13.7219 10L15.9707 5.5L18.226 10H13.7219ZM8.00001 10.5C8.00001 9.99625 8.04298 10.2266 5.34001 4.82812C4.78938 3.72656 3.21125 3.7225 2.65656 4.82812C-0.062195 10.275 0.0284302 10.0125 0.0284302 10.5C0.0284302 11.8791 1.8175 13 4.00031 13C6.18313 13 8.00001 11.8781 8.00001 10.5ZM3.99688 5.5L6.25313 10H1.74875L3.99688 5.5ZM15.4719 14H11V4.79063C11.7344 4.46875 12.2844 3.80625 12.45 3H16C16.5522 3 16.9719 2.55219 16.9719 2C16.9719 1.44781 16.5241 1 16 1H11.9875C11.5306 0.394375 10.8156 0 9.99939 0C9.18314 0 8.44064 0.394375 8.01251 1H4C3.44688 1 3 1.44781 3 2C3 2.55219 3.44688 3 3.97188 3H7.52189C7.68595 3.80469 8.23658 4.46875 8.97095 4.78906V14H4.5C3.67156 14 2.99969 14.6716 2.99969 15.5C2.99969 15.7761 3.22359 16 3.49969 16H16.4997C16.7758 16 16.9997 15.7761 16.9997 15.5C17 14.6719 16.3282 14 15.4719 14Z" fill="#FAFAFA"/>
</g>
<defs>
<clipPath id="clip0_47_105">
<rect width="20" height="16" fill="white"/>
</clipPath>
</defs>
</svg>
