<svg width="24" height="24" viewBox="0 0 24 24" fill="none" xmlns="http://www.w3.org/2000/svg">
<g clip-path="url(#clip0_47_76)">
<path d="M23.4515 20.7984L17.8406 15.1875C19.1165 13.2933 19.746 10.9266 19.409 8.40468C18.8343 4.11515 15.3187 0.624374 11.0249 0.0807647C4.64104 -0.727032 -0.727085 4.64109 0.0807583 11.025C0.624508 15.3206 4.11576 18.839 8.40576 19.4109C10.9276 19.7479 13.2948 19.1186 15.1886 17.8425L20.7995 23.4534C21.5317 24.1856 22.719 24.1856 23.4512 23.4534C24.1828 22.7203 24.1828 21.5297 23.4515 20.7984ZM3.70776 9.74999C3.70776 6.44156 6.39932 3.75 9.70776 3.75C13.0162 3.75 15.7078 6.44156 15.7078 9.74999C15.7078 13.0584 13.0162 15.75 9.70776 15.75C6.39932 15.75 3.70776 13.0594 3.70776 9.74999Z" fill="#BBBBBB"/>
</g>
<defs>
<clipPath id="clip0_47_76">
<rect width="24" height="24" fill="white"/>
</clipPath>
</defs>
</svg>
