<svg width="20" height="20" viewBox="0 0 20 20" fill="none" xmlns="http://www.w3.org/2000/svg">
<path fill-rule="evenodd" clip-rule="evenodd" d="M0.000976723 9.125C0.000976723 4.63672 4.47648 1 9.99991 1C15.5233 1 19.9648 4.63789 19.9648 9.125C19.9648 13.6121 15.5233 17.25 9.99991 17.25C8.49991 17.25 7.07804 16.9727 5.8046 16.4926C4.80851 17.2594 2.9003 18.5 0.312414 18.5C0.185461 18.5 0.0772189 18.4297 0.0283205 18.3127C-0.0253905 18.1955 -0.0009764 18.0594 0.0869142 17.9715C0.106445 17.952 1.73809 16.198 2.22637 14.2305C0.834961 12.8352 0.000976723 11.0637 0.000976723 9.125ZM10.5002 8.95814V13.3331H11.1252C11.4709 13.3331 11.7502 13.595 11.7502 13.9406C11.7502 14.2861 11.4703 14.5655 11.1252 14.5655H8.62515C8.28004 14.5655 8.00015 14.2861 8.00015 13.9406C8.00015 13.595 8.28004 13.3156 8.62515 13.3156H9.25015V9.56556H8.62515C8.28004 9.56556 8.00015 9.30364 8.00015 8.95814C8.00015 8.61263 8.28004 8.33314 8.62515 8.33314H9.87515C10.2203 8.33314 10.5002 8.61263 10.5002 8.95814ZM10.8127 6.14564C10.8127 6.66341 10.3929 7.08314 9.87515 7.08314C9.35738 7.08314 8.93765 6.66361 8.93765 6.14584C8.93765 5.62806 9.35757 5.20834 9.87515 5.20834C10.3927 5.20834 10.8127 5.62787 10.8127 6.14564Z" fill="#FAFAFA"/>
</svg>
