<svg width="24" height="24" viewBox="0 0 24 24" fill="none" xmlns="http://www.w3.org/2000/svg">
<path d="M21 6H15V0L21 6ZM15 7.5H21V21.75C21 22.9927 19.9927 24 18.75 24H5.25C4.00734 24 3 22.9922 3 21.75V2.25C3 1.00734 4.00734 0 5.25 0H13.5L13.5002 6C13.5 6.82969 14.1703 7.5 15 7.5ZM14.9531 13.8281L13.125 15.6609V10.875C13.125 10.2539 12.6211 9.75 12 9.75C11.3789 9.75 10.875 10.2563 10.875 10.875V15.6609L9.00469 13.8281C8.82656 13.6078 8.54063 13.5 8.25 13.5C7.95937 13.5 7.67438 13.6078 7.45453 13.8281C7.01508 14.2676 7.01508 14.9794 7.45453 15.4191L11.2045 19.1691C11.644 19.6085 12.3558 19.6085 12.7955 19.1691L16.5455 15.4191C16.9849 14.9796 16.9849 14.2678 16.5455 13.8281C16.106 13.3884 15.3938 13.3922 14.9531 13.8281Z" fill="#FC9E02"/>
</svg>
