<svg width="24" height="24" viewBox="0 0 24 24" fill="none" xmlns="http://www.w3.org/2000/svg">
<path fill-rule="evenodd" clip-rule="evenodd" d="M11.5305 1.02437C10.7746 1.14536 10.2129 1.43926 9.65546 2.00546L9.25703 2.41018L4.94546 10.0961C2.57406 14.3234 0.52187 18.0036 0.384995 18.2743C0.113308 18.8116 0.00132324 19.2351 1.07421e-05 19.7305C-0.00383301 21.1957 1.02423 22.5089 2.48359 22.9029C2.76925 22.9801 3.36367 22.9852 11.9992 22.9852C20.6348 22.9852 21.2292 22.9801 21.5148 22.9029C22.5417 22.6257 23.3915 21.8729 23.777 20.8993C24.0946 20.0972 24.0675 19.2067 23.7023 18.4397C23.5137 18.0438 14.9606 2.7939 14.7304 2.44323C14.6419 2.30842 14.41 2.04911 14.215 1.86704C13.8287 1.50625 13.3209 1.22701 12.8195 1.09961C12.4552 1.00698 11.857 0.972105 11.5305 1.02437ZM12.4564 7.11259C12.6779 7.22621 12.8185 7.37617 12.911 7.59765C12.9742 7.74873 12.9834 8.18978 12.9826 10.9954C12.9816 14.0337 12.9765 14.2304 12.8947 14.4071C12.5386 15.1763 11.497 15.1842 11.1043 14.4207C11.0188 14.2545 11.0148 14.103 11.0148 11.009C11.0148 8.19268 11.0243 7.74868 11.0874 7.59765C11.3093 7.06646 11.9345 6.84498 12.4564 7.11259ZM12.5325 17.1504C12.6267 17.2142 12.7615 17.3491 12.832 17.45C12.9445 17.6111 12.9602 17.6773 12.9602 17.993C12.9602 18.3088 12.9445 18.375 12.832 18.5361C12.7615 18.637 12.626 18.7723 12.5307 18.8368C12.3835 18.9365 12.3041 18.954 11.9992 18.954C11.6943 18.954 11.6149 18.9365 11.4677 18.8368C11.0895 18.5807 10.9168 18.0807 11.0583 17.6516C11.1227 17.4566 11.3945 17.1644 11.5966 17.0729C11.8283 16.968 12.3235 17.009 12.5325 17.1504Z" fill="white"/>
</svg>
