<svg width="27" height="27" viewBox="0 0 27 27" fill="none" xmlns="http://www.w3.org/2000/svg">
<path d="M25.7653 6.81639C25.4709 5.7078 24.6034 4.8347 23.502 4.53841C21.5056 4 13.5002 4 13.5002 4C13.5002 4 5.4949 4 3.49845 4.53841C2.39702 4.83475 1.52956 5.7078 1.23513 6.81639C0.700195 8.82578 0.700195 13.0182 0.700195 13.0182C0.700195 13.0182 0.700195 17.2106 1.23513 19.22C1.52956 20.3286 2.39702 21.1653 3.49845 21.4616C5.4949 22 13.5002 22 13.5002 22C13.5002 22 21.5055 22 23.502 21.4616C24.6034 21.1653 25.4709 20.3286 25.7653 19.22C26.3002 17.2106 26.3002 13.0182 26.3002 13.0182C26.3002 13.0182 26.3002 8.82578 25.7653 6.81639V6.81639ZM10.882 16.8246V9.2118L17.5729 13.0183L10.882 16.8246V16.8246Z" fill="white"/>
</svg>
